<?xml version='1.0' encoding='utf-8'?>
<svg xmlns:xlink="http://www.w3.org/1999/xlink" xmlns="http://www.w3.org/2000/svg" viewBox="0 0 249.04 249.04"> <defs> <linearGradient id="c" x1="13.726" x2="28.783" y1="-280.61" y2="-268.47" gradientUnits="userSpaceOnUse"> <stop stop-color="#eeeeec" offset="0"/> <stop stop-color="#2e3436" offset="1"/> </linearGradient> <linearGradient id="b"> <stop stop-color="#989a96" offset="0"/> <stop stop-color="#eeeeec" offset="1"/> </linearGradient> <linearGradient id="e" x1="315.57" x2="368.25" y1="544.53" y2="576.35" gradientUnits="userSpaceOnUse"> <stop stop-color="#888a85" offset="0"/> <stop stop-color="#eeeeec" offset="1"/> </linearGradient> <linearGradient id="d" x1="314.37" x2="431.37" y1="513.08" y2="664.58" gradientUnits="userSpaceOnUse"> <stop stop-color="#d3d7cf" offset="0"/> <stop stop-color="#babdb6" offset="1"/> </linearGradient> <linearGradient id="a" x1="-29" x2="175" gradientUnits="userSpaceOnUse"> <stop stop-color="#888a85" offset="0"/> <stop stop-color="#888a85" stop-opacity="0" offset="1"/> </linearGradient> <linearGradient id="f" x1="62.5" x2="187.5" y1="-148.14" y2="58.862" gradientTransform="matrix(-.87659 .5061 .5061 .87659 464.45 536.91)" gradientUnits="userSpaceOnUse" xlink:href="#b"/> <linearGradient id="g" x1="62.5" x2="187.5" y1="-148.14" y2="58.862" gradientTransform="matrix(.86603 -.5 .5 .86603 272.55 647.21)" gradientUnits="userSpaceOnUse" xlink:href="#b"/> </defs> <g transform="translate(-225.48 -436.83)"> <path transform="matrix(.85294 0 0 .85294 288.89 955.96)" d="m174-458.64c0 55.781-45.219 101-101 101s-101-45.219-101-101 45.219-101 101-101 101 45.219 101 101z" fill="#2e3436"/> <path transform="matrix(.65162 .36922 -.36922 .65162 134.96 833.84)" d="m174-458.64c0 55.781-45.219 101-101 101s-101-45.219-101-101 45.219-101 101-101 101 45.219 101 101z" fill="none" stroke="url(#a)" stroke-linejoin="round" stroke-width="2"/> <path transform="matrix(.59735 .33847 -.33847 .59735 153.02 811.2)" d="m174-458.64c0 55.781-45.219 101-101 101s-101-45.219-101-101 45.219-101 101-101 101 45.219 101 101z" fill="none" stroke="url(#a)" stroke-linejoin="round" stroke-width="2"/> <path transform="matrix(.53704 .3043 -.3043 .53704 173.1 786.03)" d="m174-458.64c0 55.781-45.219 101-101 101s-101-45.219-101-101 45.219-101 101-101 101 45.219 101 101z" fill="none" stroke="url(#a)" stroke-linejoin="round" stroke-width="2"/> <path transform="matrix(.45865 .25988 -.25988 .45865 199.19 753.32)" d="m174-458.64c0 55.781-45.219 101-101 101s-101-45.219-101-101 45.219-101 101-101 101 45.219 101 101z" fill="none" stroke="url(#a)" stroke-linejoin="round" stroke-width="2"/> <path d="m349.56 440.37c-67.26 0-121.78 54.521-121.78 121.78s54.521 121.78 121.78 121.78 121.78-54.521 121.78-121.78-54.521-121.78-121.78-121.78zm0 15.75c14.403 0 26.094 11.66 26.094 26.062s-11.691 26.094-26.094 26.094-26.094-11.691-26.094-26.094 11.691-26.062 26.094-26.062zm-69.812 39.969c4.6114-0.10641 9.3061 0.99325 13.594 3.4688 12.473 7.2015 16.764 23.183 9.5625 35.656s-23.183 16.733-35.656 9.5312-16.701-23.12-9.5-35.594c4.726-8.1856 13.196-12.859 22-13.062zm138.31 0c9.2536-0.23881 18.362 4.4871 23.312 13.062 7.2015 12.473 2.9108 28.424-9.5625 35.625s-28.424 2.9421-35.625-9.5312-2.9421-28.486 9.5312-35.688c3.8979-2.2505 8.1376-3.3602 12.344-3.4688zm-79.375 39.625c2.8324-0.0736 5.6399 1.3737 7.1562 4 2.2056 3.8201 0.88263 8.7007-2.9375 10.906s-8.7007 0.91389-10.906-2.9062-0.91388-8.732 2.9062-10.938c1.1938-0.68924 2.4938-1.0291 3.7812-1.0625zm21.344 0c1.4108-0.0301 2.8431 0.30433 4.1562 1.0625 3.8201 2.2056 5.1431 7.1174 2.9375 10.938s-7.0861 5.1118-10.906 2.9062-5.1431-7.0861-2.9375-10.906c0.68923-1.1938 1.6517-2.1398 2.75-2.8125 1.2081-0.73997 2.5892-1.1574 4-1.1875zm-31.75 18.438c4.4111-1e-5 7.9688 3.5889 7.9688 8s-3.5576 8-7.9688 8-8-3.5889-8-8c0-3.0326 1.6665-5.6788 4.1562-7.0312 1.1317-0.61478 2.4653-0.96876 3.8438-0.96875zm42.562 0c4.4111 0 8 3.5889 8 8s-3.5889 8-8 8-7.9688-3.5889-7.9688-8c-1e-5 -3.0326 1.6977-5.6788 4.1875-7.0312 1.1317-0.61477 2.4028-0.96875 3.7812-0.96875zm-32.094 18.469c1.418-0.0343 2.8431 0.30434 4.1562 1.0625 3.8201 2.2056 5.1431 7.0861 2.9375 10.906s-7.0861 5.1431-10.906 2.9375-5.143-7.1174-2.9375-10.938c0.68924-1.1938 1.6205-2.1086 2.7188-2.7812 1.2081-0.73997 2.6133-1.1532 4.0312-1.1875zm21.25 0c2.8324-0.0736 5.6087 1.3424 7.125 3.9688 2.2056 3.8201 0.91388 8.7319-2.9062 10.938s-8.732 0.88264-10.938-2.9375-0.88263-8.7007 2.9375-10.906c1.1938-0.68923 2.4938-1.0291 3.7812-1.0625zm-80.406 3.4062c9.2536-0.2388 18.361 4.4871 23.312 13.062 7.2015 12.473 2.9108 28.455-9.5625 35.656s-28.392 2.8796-35.594-9.5938-2.9733-28.424 9.5-35.625c3.8979-2.2505 8.1376-3.3914 12.344-3.5zm138.62 0c4.6154-0.10407 9.3061 1.0245 13.594 3.5 12.473 7.2015 16.764 23.152 9.5625 35.625s-23.183 16.764-35.656 9.5625-16.733-23.183-9.5312-35.656c4.726-8.1856 13.22-12.833 22.031-13.031zm-68.656 39.969c14.403 0 26.094 11.691 26.094 26.094s-11.691 26.094-26.094 26.094-26.094-11.691-26.094-26.094 11.691-26.094 26.094-26.094z" fill="url(#d)"/> <path d="m349.54 528.19c-18.766 0-33.969 15.203-33.969 33.969s15.203 33.969 33.969 33.969 34-15.203 34-33.969-15.234-33.969-34-33.969zm-10.875 7.5312c2.8324-0.0736 5.6399 1.3737 7.1562 4 2.2056 3.8201 0.88263 8.7007-2.9375 10.906s-8.7007 0.91389-10.906-2.9062-0.91388-8.732 2.9062-10.938c1.1938-0.68924 2.4938-1.0291 3.7812-1.0625zm21.344 0c1.4108-0.0302 2.8431 0.30433 4.1562 1.0625 3.8201 2.2056 5.1431 7.1174 2.9375 10.938s-7.0861 5.1118-10.906 2.9062-5.1431-7.0861-2.9375-10.906c0.68923-1.1938 1.6517-2.1398 2.75-2.8125 1.2081-0.73997 2.5892-1.1574 4-1.1875zm-31.75 18.438c4.4111-1e-5 7.9688 3.5889 7.9688 8s-3.5576 8-7.9688 8-8-3.5889-8-8c0-3.0326 1.6665-5.6788 4.1562-7.0312 1.1317-0.61478 2.4653-0.96876 3.8438-0.96875zm42.562 0c4.4111 0 8 3.5889 8 8s-3.5889 8-8 8-7.9688-3.5889-7.9688-8c-1e-5 -3.0326 1.6977-5.6788 4.1875-7.0312 1.1317-0.61477 2.4028-0.96875 3.7812-0.96875zm-32.094 18.469c1.418-0.0343 2.8431 0.30434 4.1562 1.0625 3.8201 2.2056 5.1431 7.0861 2.9375 10.906s-7.0861 5.1431-10.906 2.9375-5.143-7.1174-2.9375-10.938c0.68924-1.1938 1.6205-2.1086 2.7188-2.7812 1.2081-0.73997 2.6133-1.1532 4.0312-1.1875zm21.25 0c2.8324-0.0736 5.6087 1.3424 7.125 3.9688 2.2056 3.8201 0.91388 8.7319-2.9062 10.938s-8.732 0.88264-10.938-2.9375-0.88263-8.7007 2.9375-10.906c1.1938-0.68923 2.4938-1.0291 3.7812-1.0625z" fill="url(#e)"/> <path d="m295.67 462.13c-0.96676 0.0261-1.9442 0.29313-2.8438 0.8125-2.8787 1.662-3.8808 5.3088-2.2188 8.1875l32.188 63.594c-4.6199 4.636-8.0546 10.463-9.8125 16.969l-71.156 3.9688c-1.2465 0-2.4177 0.35432-3.375 1-1.5955 1.0761-2.625 2.9225-2.625 5 0 3.324 2.676 6 6 6l71.156 3.9688c1.756 6.4992 5.1689 12.335 9.7812 16.969l-32.125 63.594c-1.662 2.8787-0.69115 6.5255 2.1875 8.1875s6.5255 0.69117 8.1875-2.1875l38.969-59.656c3.1346 0.83269 6.447 1.2812 9.8438 1.2812s6.6779-0.44856 9.8125-1.2812l38.969 59.656c1.662 2.8787 5.3401 3.8495 8.2188 2.1875s3.8495-5.3088 2.1875-8.1875l-32.156-63.594c4.6127-4.6337 8.0252-10.469 9.7812-16.969l71.188-3.9688c3.324 0 5.9688-2.676 5.9688-6s-2.6447-6-5.9688-6l-71.188-3.9688c-1.7561-6.4995-5.1686-12.335-9.7812-16.969l32.156-63.594c1.662-2.8787 0.65991-6.5255-2.2188-8.1875-1.9791-1.1426-4.3118-1.0507-6.125 0.0625-0.82419 0.50598-1.5119 1.2254-2.0312 2.125l-39 59.656c-3.1346-0.83268-6.4158-1.2812-9.8125-1.2812-3.3832 0-6.6891 0.42372-9.8125 1.25l-39-59.625c-1.1426-1.9791-3.2169-3.0574-5.3438-3zm54.125 65.312c18.898 0 34.219 15.32 34.219 34.219s-15.32 34.219-34.219 34.219-34.188-15.32-34.188-34.219 15.289-34.219 34.188-34.219z" fill="none" opacity=".8" stroke="#eeeeec" stroke-linejoin="round" stroke-width="2"/> <path d="m288.5 454.83c-58.83 33.966-78.987 109.19-45.021 168.02s109.19 78.987 168.02 45.021 78.987-109.19 45.021-168.02-109.19-78.987-168.02-45.021zm1.5 2.5981c57.395-33.137 130.79-13.472 163.92 43.923s13.472 130.79-43.923 163.92-130.79 13.472-163.92-43.923-13.472-130.79 43.923-163.92z" fill="url(#g)"/> <path d="m287.75 453.54c59.547-34.38 135.69-13.977 170.07 45.57s13.977 135.69-45.57 170.07-135.69 13.977-170.07-45.57-13.977-135.69 45.57-170.07zm1.5183 2.6298c-58.095 33.541-78 107.83-44.459 165.92s107.83 78 165.92 44.459 78-107.83 44.459-165.92-107.83-78-165.92-44.459z" fill="url(#f)"/> <path d="m387.62 551.62c-1.77-6.4958-5.1899-12.345-9.8125-16.969l32-63.656c1.6559-2.8822 0.66346-6.5316-2.2188-8.1875-0.46555-0.26746-0.94486-0.45882-1.4375-0.59375m-18.531 89.406m-26.438-27.844-0.625 0.96875c-3.1364-0.82598-6.4158-1.2572-9.8125-1.25-3.3832 7e-3 -6.6909 0.4483-9.8125 1.2812l-39.125-59.562c-1.1468-1.9766-3.217-3.0307-5.3438-2.9688-0.9667 0.0282-1.9453 0.29121-2.8438 0.8125-0.31994 0.18563-0.63358 0.39421-0.90625 0.625m113.44-1.4688m-28.25 126.31c4.6028-4.6435 8.0078-10.465 9.75-16.969l71.188-4.125c3.324-7e-3 5.9446-2.7072 5.9375-6.0312s-2.6447-5.9758-5.9688-5.9688m-80.906 33.094m-27 11.281c3.3967-7e-3 6.6796-0.47312 9.8125-1.3125l39.094 59.594c1.6682 2.8751 5.3436 3.8244 8.2188 2.1562m-95.469-88.594 1.4375 0.0625c1.7699 6.4954 5.1903 12.314 9.8125 16.938l-31.969 63.656c-1.6559 2.8822-0.69469 6.5316 2.1875 8.1875m29.719-125.75v0.0312c-4.61 4.6459-8.0373 10.49-9.7812 17l-71.156 4.0938c-1.2465 3e-3 -2.4191 0.38353-3.375 1.0312-1.5932 1.0795-2.5982 2.9225-2.5938 5 5.1e-4 0.24019 4e-3 0.48615 0.0312 0.71875m113.84-35.187c18.898-0.0404 34.241 15.258 34.281 34.156s-15.227 34.241-34.125 34.281-34.21-15.258-34.25-34.156 15.195-34.241 34.094-34.281z" fill="none" opacity=".8" stroke="#888a85" stroke-linejoin="round" stroke-width="2"/> <g transform="translate(329.37 838.22)"> <path transform="matrix(.76641 0 0 .76641 -16.858 -37.358)" d="m62.225-308.82c0 6.2484-5.0653 11.314-11.314 11.314s-11.314-5.0653-11.314-11.314 5.0653-11.314 11.314-11.314 11.314 5.0653 11.314 11.314z" fill="#888a85" opacity=".5"/> <path transform="matrix(.68523 0 0 .68523 -14.483 -65.069)" d="m62.225-308.82c0 6.2484-5.0653 11.314-11.314 11.314s-11.314-5.0653-11.314-11.314 5.0653-11.314 11.314-11.314 11.314 5.0653 11.314 11.314z" fill="#fff"/> <path d="m20.36-282.36c-2.9679 0-5.3645 2.4246-5.3645 5.3924 0 2.5342 1.7469 4.63 4.1072 5.1968v3.3249h2.5146v-3.3249c2.3603-0.56678 4.1072-2.6627 4.1072-5.1968 0-2.9679-2.3966-5.3924-5.3645-5.3924z" fill="#2e3436"/> <path d="m17.587-268.82c-1.2648-0.45501-2.1696-1.0387-3.1867-2.0559-1.0473-1.0473-1.6005-1.9199-2.0556-3.2427-1.8399-5.3477 2.2829-11.14 7.929-11.14 2.3633 0 4.401 0.83221 6.0325 2.4638 1.6872 1.6872 2.4769 3.5851 2.4769 5.9533 0 2.4075-0.79175 4.3046-2.5288 6.0596-0.92399 0.93346-2.8876 2.0211-3.9908 2.2104l-0.5927 0.10173v-3.1462l0.5927-0.18398c2.1023-0.6526 3.6932-3.1679 3.4572-5.466-0.20123-1.9599-1.4163-3.6433-3.2407-4.4896-1.2588-0.58393-3.0438-0.58642-4.2864-6e-3 -2.7914 1.3039-3.9895 4.6822-2.6193 7.3861 0.48126 0.94972 1.6999 2.0868 2.6582 2.4804l0.75016 0.30807 5.9e-4 1.541c6.8e-4 1.7648 0.02989 1.7392-1.3962 1.2261h9e-6z" fill="url(#c)"/> </g> </g> </svg>